<svg width="158" height="165" viewBox="0 0 158 165" fill="none" xmlns="http://www.w3.org/2000/svg"><g clip-path="url(#clip0_21_337)"><path d="M157.19 71.05L136.79 122.86C135.988 124.896 134.522 126.601 132.63 127.7L70.32 163.7C68.6436 164.693 66.7027 165.146 64.76 165C62.4478 164.84 60.2726 163.845 58.64 162.2L58.5 162L2.71999 104.22C1.44315 102.897 0.567973 101.24 0.196222 99.4393C-0.175528 97.639 -0.028577 95.7701 0.619988 94.05C0.632227 94.0051 0.648979 93.9615 0.669988 93.92L21 42.11C21.0272 42.0117 21.0675 41.9175 21.12 41.83C21.5025 40.9403 22.0185 40.1142 22.65 39.38C23.3765 38.5473 24.2304 37.8351 25.18 37.27L87.5 1.27C87.5106 1.26386 87.5227 1.26063 87.535 1.26063C87.5473 1.26063 87.5593 1.26386 87.57 1.27C89.4462 0.200402 91.6264 -0.210368 93.7631 0.103168C95.8999 0.416704 97.8702 1.4365 99.36 3L155.13 60.81C156.415 62.1484 157.291 63.8257 157.656 65.6449C158.021 67.4641 157.859 69.3496 157.19 71.08V71.05Z" fill="white"></path><path d="M87.66 106.7L64.76 165C62.4478 164.84 60.2726 163.845 58.64 162.2L58.5 162L2.71999 104.22C1.44315 102.897 0.567973 101.24 0.196222 99.4393C-0.175528 97.639 -0.028577 95.7701 0.619988 94.05C0.632227 94.0051 0.648979 93.9615 0.669988 93.92L21 42.11C21.0272 42.0117 21.0675 41.9175 21.12 41.83C21.5025 40.9403 22.0185 40.1142 22.65 39.38L87.66 106.7Z" fill="#E6E6E6"></path><path d="M157.19 71.05L136.79 122.86C135.988 124.896 134.522 126.601 132.63 127.7L70.32 163.7C68.6436 164.693 66.7027 165.146 64.76 165L87.66 106.75L157.76 66.29C157.976 67.8993 157.78 69.5373 157.19 71.05Z" fill="#B3B3B3"></path><path d="M96.55 73.53C99.11 76.1967 98.8533 78.4167 95.78 80.19C92.7066 81.9633 89.6066 81.2333 86.48 78L84.09 75.53C80.9366 72.27 80.84 69.7833 83.8 68.07C86.8 66.37 89.49 66.81 92 69.42L100.73 64.42C97.9857 61.3145 94.1336 59.4082 90 59.11C85.8311 58.9561 81.7094 60.0343 78.15 62.21C73.95 64.63 71.6366 67.54 71.21 70.94C70.7833 74.34 72.4666 78.0067 76.26 81.94C80.0466 85.8733 84.11 88.1633 88.45 88.81C92.8961 89.4377 97.4221 88.4972 101.25 86.15C105.17 83.8767 107.563 81.2333 108.43 78.22C109.297 75.2067 108.127 72.0333 104.92 68.7L96.55 73.53Z" fill="black"></path><path d="M56.3 43.59C56.3209 43.0445 56.4902 42.515 56.7898 42.0586C57.0893 41.6022 57.5078 41.2362 58 41C58.4634 40.7286 58.9767 40.5534 59.5093 40.4847C60.0419 40.4159 60.5829 40.4552 61.1 40.6C62.282 40.9312 63.3462 41.5899 64.17 42.5L77.49 56.27L86.49 51.07L72.19 36.24C70.009 33.7708 67.1672 31.9769 64 31.07C61.1327 30.4072 58.1197 30.907 55.62 32.46C54.0142 33.3566 52.7042 34.7013 51.85 36.33C51.0401 37.8634 50.729 39.6113 50.96 41.33L47 38.23L39.6 42.49L61.7 65.39L70.7 60.19L57.7 46.75C57.2654 46.3451 56.9173 45.8563 56.6767 45.3132C56.4361 44.7701 56.308 44.1839 56.3 43.59Z" fill="black"></path><path d="M109.38 27.2L107.68 25.4L100.59 18.08C99.4652 16.8248 98.0719 15.8394 96.5137 15.1971C94.9555 14.5548 93.2725 14.2721 91.59 14.37C87.8375 14.6253 84.2032 15.7886 81 17.76C77 20.06 74.51 22.49 73.58 25C72.65 27.51 73.23 29.86 75.33 32C75.5227 32.2083 75.7336 32.399 75.96 32.57L84.83 27.46L84.65 27.29C84.3515 27.0381 84.1452 26.694 84.0638 26.312C83.9823 25.93 84.0302 25.5318 84.2 25.18C84.6676 24.3705 85.3632 23.7167 86.2 23.3C87.1513 22.7135 88.2668 22.4504 89.38 22.55C90.5106 22.6582 91.5596 23.1863 92.32 24.03L93.39 25.16C90.3156 26.8395 87.435 28.8515 84.8 31.16C83.0952 32.5257 81.9902 34.5024 81.72 36.67C81.59 38.57 82.59 40.67 84.72 42.86C88.9067 47.14 93.7967 47.6667 99.39 44.44C101.049 43.5414 102.492 42.2925 103.62 40.78C104.334 39.7481 104.874 38.6064 105.22 37.4L106.88 39.1L110.21 37.2L115.87 33.92L109.38 27.2ZM100.09 34.2C99.9335 34.7962 99.6544 35.3531 99.2704 35.8353C98.8864 36.3174 98.406 36.7141 97.86 37C95.8 38.18 94.1 38 92.7 36.6C92.2787 36.1839 92.0231 35.6289 91.9808 35.0383C91.9384 34.4477 92.1123 33.8619 92.47 33.39C93.17 32.16 94.8 30.78 97.36 29.31L98.66 30.66L99.26 31.26C99.656 31.6345 99.9425 32.1097 100.089 32.6348C100.235 33.1598 100.235 33.7147 100.09 34.24V34.2Z" fill="black"></path><path d="M135.39 53L126.65 58C127.018 58.3693 127.304 58.8125 127.488 59.3003C127.673 59.7881 127.752 60.3095 127.72 60.83C127.6 61.83 126.72 62.83 125.27 63.64C124.559 64.1009 123.762 64.4136 122.927 64.5597C122.092 64.7057 121.236 64.682 120.41 64.49C118.565 63.9429 116.914 62.8815 115.65 61.43L133.59 51.08L132.16 49.61C128.253 45.57 124.193 43.2367 119.98 42.61C115.498 42.0302 110.954 43.0309 107.13 45.44C102.923 47.8733 100.61 50.79 100.19 54.19C99.74 57.57 101.44 61.25 105.19 65.19C108.94 69.13 113.19 71.5 117.55 72.05C122.156 72.5617 126.799 71.5047 130.73 69.05C134.96 66.62 137.41 63.99 138.12 61.16C138.83 58.33 137.9 55.74 135.39 53ZM112.79 50.77C113.991 50.05 115.42 49.8107 116.79 50.1C118.255 50.4265 119.585 51.1944 120.6 52.3L111.8 57.36C109.61 54.64 110 52.43 112.79 50.8V50.77Z" fill="black"></path><path d="M67.56 142.19L62.36 136.8L57.24 149.81L62.44 155.2L67.56 142.19Z" fill="black"></path><path d="M57.82 133.08C56.5473 130.751 54.944 128.619 53.06 126.75C50.7467 124.343 48.8267 122.863 47.3 122.31C45.77 121.73 44.77 122.06 44.3 123.31C44.2446 123.428 44.2043 123.552 44.18 123.68L49.3 129V128.9C49.45 128.49 49.77 128.42 50.22 128.64C50.7882 128.942 51.2992 129.342 51.73 129.82C52.2807 130.368 52.7219 131.017 53.03 131.73C53.1629 131.997 53.2403 132.287 53.2575 132.585C53.2747 132.882 53.2313 133.18 53.13 133.46L52.88 134.11C51.1663 132.281 49.3429 130.558 47.42 128.95C46.3884 127.997 45.1099 127.352 43.73 127.09C42.73 126.99 42.03 127.59 41.53 128.85C40.53 131.3 41.7 134.18 44.94 137.54C45.8501 138.502 46.8783 139.346 48 140.05C48.6796 140.465 49.4043 140.8 50.16 141.05L49.78 142.05L51.69 144.05L55 147.39L56.5 143.56L56.9 142.56L58.53 138.4C59.12 136.89 58.9 135.11 57.82 133.08ZM51.71 137.17L51.56 137.49C51.36 138.02 50.93 138.17 50.28 138C49.5121 137.717 48.8253 137.25 48.28 136.64C47.08 135.41 46.65 134.39 46.98 133.64C47.18 133.11 47.7 133.08 48.53 133.51C49.813 134.307 50.9806 135.276 52 136.39L51.71 137.17Z" fill="black"></path><path d="M40.11 125.58L34.91 120.19L33.1 124.79L38.3 130.18L40.11 125.58Z" fill="black"></path><path d="M69.98 136.05L64.78 130.66L62.97 135.27L68.16 140.66L69.98 136.05Z" fill="black"></path></g><defs><clipPath id="clip0_21_337"><rect width="157.85" height="164.98" fill="white"></rect></clipPath></defs></svg>
